<?xml version="1.0" standalone="no"?>
<!DOCTYPE svg PUBLIC "-//W3C//DTD SVG 20010904//EN"
 "http://www.w3.org/TR/2001/REC-SVG-20010904/DTD/svg10.dtd">
<svg version="1.0" xmlns="http://www.w3.org/2000/svg"
 width="612.000000pt" height="612.000000pt" viewBox="0 0 612.000000 612.000000"
 preserveAspectRatio="xMidYMid meet">
<metadata>
Created by potrace 1.14, written by Peter Selinger 2001-2017
</metadata>
<g transform="translate(0.000000,612.000000) scale(0.100000,-0.100000)"
fill="#000000" stroke="none">
<path d="M0 3060 l0 -3060 3060 0 3060 0 0 3060 0 3060 -3060 0 -3060 0 0
-3060z m3414 3025 c792 -93 1517 -492 2015 -1110 394 -489 621 -1058 670
-1684 60 -757 -179 -1536 -655 -2131 -91 -113 -307 -334 -421 -429 -513 -430
-1097 -661 -1795 -712 -398 -29 -869 46 -1271 203 -793 309 -1426 942 -1735
1735 -116 298 -175 568 -202 933 -21 274 14 627 90 926 17 65 33 126 35 134 2
8 17 53 34 100 367 1043 1246 1801 2326 2006 22 4 43 8 48 9 4 2 23 3 42 4 28
1 33 4 29 19 -4 12 -3 14 4 4 9 -13 66 -10 297 12 74 7 359 -4 489 -19z m2696
-445 c0 -5 -5 -10 -11 -10 -5 0 -7 5 -4 10 3 6 8 10 11 10 2 0 4 -4 4 -10z"/>
<path d="M2815 6000 c-397 -34 -818 -160 -1162 -348 -146 -80 -204 -118 -195
-127 4 -5 2 -5 -4 -2 -7 4 -56 -25 -110 -64 -297 -215 -549 -476 -747 -773
-81 -122 -184 -306 -170 -306 4 0 3 -4 -3 -8 -19 -12 -79 -141 -133 -284 -85
-226 -146 -491 -171 -742 -18 -172 -8 -574 19 -736 112 -691 433 -1282 954
-1755 279 -253 631 -460 997 -586 651 -225 1359 -218 2007 22 164 60 432 197
583 296 599 396 1027 975 1225 1658 66 230 115 574 115 816 0 431 -115 919
-306 1301 -76 152 -106 201 -116 186 -7 -9 -8 -8 -4 6 10 29 -98 192 -248 376
-89 109 -317 336 -426 424 -424 340 -936 558 -1483 632 -135 18 -484 26 -622
14z m1095 -880 c0 -5 -5 -10 -11 -10 -5 0 -7 5 -4 10 3 6 8 10 11 10 2 0 4 -4
4 -10z m-280 -10 c0 -5 -2 -10 -4 -10 -3 0 -8 5 -11 10 -3 6 -1 10 4 10 6 0
11 -4 11 -10z m1550 -180 c0 -5 -5 -10 -11 -10 -5 0 -7 5 -4 10 3 6 8 10 11
10 2 0 4 -4 4 -10z m-1760 -164 c0 -2 -8 -10 -17 -17 -16 -13 -17 -12 -4 4 13
16 21 21 21 13z m-2209 -356 c29 -93 56 -170 59 -170 3 0 15 39 27 88 13 48
33 125 45 170 22 83 22 84 3 98 -17 12 -11 14 51 14 67 -1 68 -1 37 -15 -22
-9 -35 -24 -41 -47 -6 -18 -35 -118 -65 -223 -30 -104 -57 -198 -58 -208 -4
-18 -129 344 -129 371 0 25 -19 11 -26 -20 -3 -18 -26 -95 -50 -171 -24 -76
-44 -149 -44 -163 0 -13 -3 -24 -7 -24 -5 0 -42 105 -83 233 -74 226 -77 232
-110 249 l-35 18 79 0 c69 0 77 -2 61 -13 -17 -13 -17 -16 0 -85 10 -44 21
-69 28 -65 6 4 7 1 3 -6 -8 -12 44 -211 54 -211 3 0 15 33 27 73 96 325 98
328 109 302 5 -14 35 -102 65 -195z m1359 20 c84 -96 162 -184 172 -195 19
-20 19 -17 16 165 l-3 184 -25 13 c-22 11 -18 13 45 12 51 0 64 -3 48 -9 -12
-5 -25 -20 -29 -34 -3 -14 -4 -124 -2 -245 1 -121 0 -217 -3 -213 -9 11 -291
333 -326 371 l-31 36 -1 -179 c-1 -152 2 -182 15 -198 9 -9 21 -15 25 -12 5 3
9 1 9 -5 0 -6 -26 -10 -60 -10 -32 0 -64 -2 -70 -6 -5 -3 -10 -2 -10 4 0 6 11
13 25 17 14 4 28 16 31 28 3 12 4 124 2 249 -2 165 0 223 8 214 6 -7 80 -91
164 -187z m1859 -14 l211 -209 0 185 c0 194 -1 200 -45 211 -11 2 18 5 65 5
47 0 76 -3 65 -5 -53 -13 -54 -17 -52 -269 l2 -234 -205 205 c-113 113 -207
205 -210 205 -3 0 -5 -82 -5 -181 1 -165 3 -183 19 -195 11 -7 23 -11 27 -8 5
3 9 0 9 -5 0 -7 -29 -10 -75 -10 -41 1 -75 5 -75 10 0 5 8 9 19 9 40 0 42 18
39 264 -2 129 -2 234 -1 233 1 -1 96 -96 212 -211z m-2447 176 c48 -20 106
-80 122 -129 45 -132 -1 -268 -109 -322 -43 -21 -62 -24 -191 -26 -79 -1 -141
2 -138 6 3 5 12 9 19 9 23 0 26 32 23 250 l-3 204 -24 13 c-23 11 -22 12 20
15 69 5 251 -8 281 -20z m3262 17 c9 -11 13 -79 5 -79 -5 0 -9 6 -9 14 0 21
-49 56 -79 56 -37 0 -87 -34 -95 -64 -10 -39 9 -65 109 -150 102 -87 120 -113
112 -163 -9 -52 -33 -83 -84 -105 -51 -22 -93 -21 -155 5 -37 15 -38 18 -38
66 0 28 5 51 10 51 6 0 10 -13 10 -29 0 -20 9 -37 31 -55 67 -57 179 -16 179
65 0 34 -22 59 -148 169 -55 47 -64 61 -68 95 -6 49 10 82 56 113 30 21 43 23
98 19 35 -3 64 -6 66 -8z m-1731 -9 c-13 -5 -23 -16 -23 -24 0 -8 29 -79 63
-158 35 -79 70 -160 77 -180 8 -21 17 -38 21 -38 4 0 45 84 92 188 85 186 85
187 65 205 -20 16 -17 17 58 16 44 -1 69 -4 58 -6 -12 -2 -30 -14 -41 -26 -18
-20 -212 -414 -228 -461 -4 -14 -37 45 -117 212 -61 127 -115 229 -119 227 -4
-3 -6 3 -5 12 1 12 -11 22 -34 30 -32 11 -27 12 60 12 67 0 88 -3 73 -9z
m-405 -27 c-6 -7 -12 -13 -13 -13 -2 0 -5 6 -8 13 -3 7 3 13 14 13 13 0 15 -3
7 -13z m-1608 3 c0 -2 -7 -7 -16 -10 -8 -3 -12 -2 -9 4 6 10 25 14 25 6z
m1505 -75 c3 -5 2 -12 -3 -15 -5 -3 -9 1 -9 9 0 17 3 19 12 6z m149 -74 c16
-25 -16 -56 -38 -37 -19 15 -20 32 -4 48 15 15 28 11 42 -11z m-64 -77 c0 -5
-5 -10 -11 -10 -5 0 -7 5 -4 10 3 6 8 10 11 10 2 0 4 -4 4 -10z m55 -10 c3 -5
1 -10 -4 -10 -6 0 -11 5 -11 10 0 6 2 10 4 10 3 0 8 -4 11 -10z m-125 -41 c7
-13 7 -19 0 -19 -5 0 -10 7 -10 15 0 8 -4 15 -10 15 -5 0 -10 5 -10 11 0 14
18 2 30 -22z m154 -1 c-3 -4 -9 -8 -15 -8 -5 0 -9 4 -9 8 0 5 7 9 15 9 8 0 12
-4 9 -9z m-39 -27 c3 -5 0 -13 -6 -17 -7 -4 -9 -3 -5 4 3 5 0 13 -6 15 -9 4
-10 6 -1 6 6 1 14 -3 18 -8z m-35 -61 c0 -5 -5 -10 -11 -10 -5 0 -7 5 -4 10 3
6 8 10 11 10 2 0 4 -4 4 -10z m54 -52 c14 -20 14 -23 -5 -36 -33 -23 -66 17
-37 46 17 17 25 15 42 -10z m-109 -36 c-3 -3 -11 0 -18 7 -9 10 -8 11 6 5 10
-3 15 -9 12 -12z m80 -70 c-3 -3 -11 0 -18 7 -9 10 -8 11 6 5 10 -3 15 -9 12
-12z m25 -73 c0 -18 -18 -9 -23 12 -4 16 -3 18 9 8 8 -6 14 -15 14 -20z m288
-4 c-3 -3 -9 2 -12 12 -6 14 -5 15 5 6 7 -7 10 -15 7 -18z m-17 -115 c1116 0
1299 -2 1299 -14 0 -8 -23 -54 -52 -103 -28 -48 -74 -128 -103 -178 -28 -49
-87 -151 -130 -225 -43 -74 -112 -193 -153 -265 -41 -71 -91 -157 -110 -190
-19 -33 -45 -78 -57 -100 -13 -22 -46 -80 -75 -130 -29 -49 -62 -106 -73 -125
-10 -19 -41 -72 -68 -118 -27 -45 -49 -85 -49 -87 0 -2 141 -4 313 -4 l312 1
0 -74 0 -73 -359 -5 -360 -5 -27 -47 c-15 -25 -38 -66 -52 -90 -14 -23 -75
-131 -137 -238 -62 -107 -124 -215 -138 -240 -14 -24 -49 -84 -78 -133 -30
-49 -54 -91 -54 -92 0 -1 -32 -56 -70 -121 -39 -66 -82 -143 -96 -171 -14 -29
-32 -53 -40 -53 -8 0 -14 4 -14 9 0 5 -57 107 -126 227 -70 121 -177 307 -239
414 -62 107 -145 251 -185 320 -40 69 -85 146 -99 172 l-26 48 -359 2 -359 3
-1 73 -1 72 55 0 c392 1 570 3 570 6 0 4 -43 80 -192 339 -70 122 -120 208
-298 515 -40 69 -87 150 -103 180 -17 30 -49 87 -72 125 -23 39 -66 113 -95
165 -29 52 -66 114 -82 137 -52 77 -71 73 322 73 273 0 350 3 351 13 0 10 2
10 6 0 4 -10 274 -13 1304 -13z m2099 -170 c0 -5 -5 -10 -11 -10 -5 0 -7 5 -4
10 3 6 8 10 11 10 2 0 4 -4 4 -10z m-860 -720 c0 -5 -4 -10 -10 -10 -5 0 -10
5 -10 10 0 6 5 10 10 10 6 0 10 -4 10 -10z"/>
<path d="M1750 4365 l0 -225 93 0 c77 0 99 4 131 23 107 60 131 263 44 363
-43 49 -86 64 -184 64 l-83 0 -1 -225z"/>
<path d="M1669 3683 c10 -16 45 -73 76 -128 32 -55 91 -158 132 -230 87 -151
106 -184 141 -245 60 -107 64 -112 74 -98 7 9 8 8 4 -6 -6 -18 46 -123 68
-138 6 -4 7 -8 3 -8 -4 0 7 -24 26 -52 18 -29 61 -102 95 -163 34 -60 86 -150
115 -200 l52 -90 610 -3 611 -2 33 57 c19 32 60 103 91 158 67 118 165 288
319 553 61 106 121 209 132 230 12 20 45 78 74 127 87 147 96 166 89 177 -4 6
-2 8 4 4 6 -3 21 13 35 39 l25 45 -998 0 c-785 0 -999 -3 -1003 -13 -4 -9 -6
-9 -6 1 -1 9 -90 12 -411 12 l-411 0 20 -27z m1352 -90 c-12 -20 -14 -14 -5
12 4 9 9 14 11 11 3 -2 0 -13 -6 -23z m-26 -3 c-3 -5 -12 -10 -18 -10 -7 0 -6
4 3 10 19 12 23 12 15 0z m535 0 c0 -5 -2 -10 -4 -10 -3 0 -8 5 -11 10 -3 6
-1 10 4 10 6 0 11 -4 11 -10z m-600 -12 c0 6 5 12 11 12 8 0 8 -5 -1 -15 -13
-16 -30 -11 -30 8 0 7 4 6 10 -3 6 -10 10 -11 10 -2z m54 -24 c5 -14 4 -15 -9
-4 -17 14 -19 20 -6 20 5 0 12 -7 15 -16z m-96 -19 c-3 -3 -9 2 -12 12 -6 14
-5 15 5 6 7 -7 10 -15 7 -18z m-15 -48 c3 -8 1 -20 -5 -28 -8 -11 -9 -10 -4 4
6 19 -4 23 -21 6 -7 -7 -12 -6 -16 5 -4 10 -1 13 7 10 8 -3 17 -1 21 5 8 14
12 14 18 -2z m72 -17 c3 -5 1 -10 -4 -10 -6 0 -11 5 -11 10 0 6 2 10 4 10 3 0
8 -4 11 -10z m-105 -34 c0 -8 -7 -16 -15 -20 -12 -4 -13 -2 -2 14 14 24 17 25
17 6z m35 -46 c3 -6 -1 -7 -9 -4 -18 7 -21 14 -7 14 6 0 13 -4 16 -10z m290
-19 c-6 -5 -25 10 -25 20 0 5 6 4 14 -3 8 -7 12 -15 11 -17z m-1265 -15 c0 -3
-4 -8 -10 -11 -5 -3 -10 -1 -10 4 0 6 5 11 10 11 6 0 10 -2 10 -4z m958 -36
c-15 -24 -24 -25 -32 -4 -3 8 -2 13 2 10 4 -2 14 -1 22 5 21 13 22 11 8 -11z
m-895 -15 c-3 -9 -8 -14 -10 -11 -3 3 -2 9 2 15 9 16 15 13 8 -4z m1152 -45
c3 -5 1 -10 -4 -10 -6 0 -11 5 -11 10 0 6 2 10 4 10 3 0 8 -4 11 -10z m-222
-25 c-3 -9 -8 -14 -10 -11 -3 3 -2 9 2 15 9 16 15 13 8 -4z m45 -10 c-3 -3 -9
2 -12 12 -6 14 -5 15 5 6 7 -7 10 -15 7 -18z m322 9 c0 -8 -19 -13 -24 -6 -3
5 1 9 9 9 8 0 15 -2 15 -3z m-305 -124 c3 -5 1 -10 -4 -10 -6 0 -11 5 -11 10
0 6 2 10 4 10 3 0 8 -4 11 -10z m-632 -57 c3 -5 -6 -9 -20 -10 -19 -1 -22 1
-12 8 17 11 26 11 32 2z m317 -67 c0 -3 -4 -8 -10 -11 -5 -3 -10 -1 -10 4 0 6
5 11 10 11 6 0 10 -2 10 -4z m865 -346 c3 -5 1 -10 -4 -10 -6 0 -11 5 -11 10
0 6 2 10 4 10 3 0 8 -4 11 -10z m255 -70 c0 -5 -4 -10 -10 -10 -5 0 -10 5 -10
10 0 6 5 10 10 10 6 0 10 -4 10 -10z"/>
<path d="M2540 2172 c0 -1 11 -19 23 -40 33 -51 115 -191 169 -287 75 -132 83
-146 138 -240 29 -49 61 -106 72 -125 84 -147 123 -209 129 -202 4 4 42 68 85
142 71 123 185 320 366 633 37 66 68 120 68 120 0 1 -236 2 -525 2 -289 0
-525 -1 -525 -3z"/>
</g>
</svg>
